<svg width="253" height="49" viewBox="0 0 253 49" fill="none" xmlns="http://www.w3.org/2000/svg">
<rect width="48.1562" height="48.1562" rx="24.0781" fill="white"/>
<path d="M30.0677 12.0991H26.474C24.8854 12.0991 23.3619 12.7302 22.2387 13.8534C21.1154 14.9767 20.4844 16.5002 20.4844 18.0887V21.6825H16.8906V26.4741H20.4844V36.0575H25.276V26.4741H28.8698L30.0677 21.6825H25.276V18.0887C25.276 17.771 25.4023 17.4663 25.6269 17.2416C25.8516 17.017 26.1563 16.8908 26.474 16.8908H30.0677V12.0991Z" stroke="#2A2C2D" stroke-width="1.79688" stroke-linecap="round" stroke-linejoin="round"/>
<rect x="68.2812" width="48.1562" height="48.1562" rx="24.0781" fill="white"/>
<g clip-path="url(#clip0_103_48808)">
<path d="M94.7257 22.7866L102.58 13.6562H100.719L93.8989 21.5838L88.4517 13.6562H82.1689L90.4062 25.6443L82.1689 35.2188H84.0304L91.2326 26.8469L96.9851 35.2188H103.268L94.7252 22.7866H94.7257ZM92.1763 25.7498L91.3416 24.5561L84.701 15.0575H87.5601L92.9189 22.7233L93.7534 23.917L100.72 33.8812H97.8609L92.1763 25.7503V25.7498Z" fill="#2A2C2D"/>
</g>
<rect x="136.562" width="48.1562" height="48.1562" rx="24.0781" fill="white"/>
<path d="M161 29.2293C162.271 29.2293 163.489 28.7245 164.388 27.8259C165.287 26.9273 165.791 25.7085 165.791 24.4377C165.791 23.1668 165.287 21.9481 164.388 21.0494C163.489 20.1508 162.271 19.646 161 19.646C159.729 19.646 158.51 20.1508 157.611 21.0494C156.713 21.9481 156.208 23.1668 156.208 24.4377C156.208 25.7085 156.713 26.9273 157.611 27.8259C158.51 28.7245 159.729 29.2293 161 29.2293Z" stroke="#2A2C2D" stroke-width="1.79688" stroke-linecap="round" stroke-linejoin="round"/>
<path d="M150.219 29.2292V19.6458C150.219 18.0573 150.85 16.5338 151.973 15.4106C153.096 14.2873 154.62 13.6563 156.208 13.6562H165.792C167.38 13.6562 168.904 14.2873 170.027 15.4106C171.15 16.5338 171.781 18.0573 171.781 19.6458V29.2292C171.781 30.8177 171.15 32.3412 170.027 33.4644C168.904 34.5877 167.38 35.2187 165.792 35.2187H156.208C154.62 35.2187 153.096 34.5877 151.973 33.4644C150.85 32.3412 150.219 30.8177 150.219 29.2292Z" stroke="#2A2C2D" stroke-width="1.79688"/>
<path d="M167.589 17.8615L167.601 17.8477" stroke="#2A2C2D" stroke-width="1.79688" stroke-linecap="round" stroke-linejoin="round"/>
<rect x="204.844" width="48.1562" height="48.1562" rx="24.0781" fill="white"/>
<path d="M231.677 24.4373L227.484 26.8332V22.0415L231.677 24.4373Z" fill="#2A2C2D" stroke="#2A2C2D" stroke-width="1.79688" stroke-linecap="round" stroke-linejoin="round"/>
<path d="M217.302 25.2855V23.5892C217.302 20.1212 217.302 18.3867 218.386 17.2714C219.471 16.1549 221.179 16.107 224.595 16.01C226.212 15.9645 227.865 15.9321 229.281 15.9321C230.697 15.9321 232.349 15.9645 233.967 16.01C237.382 16.107 239.091 16.1549 240.175 17.2714C241.259 18.3879 241.26 20.1224 241.26 23.5892V25.2843C241.26 28.7534 241.26 30.4868 240.176 31.6033C239.091 32.7185 237.384 32.7677 233.967 32.8635C232.35 32.9102 230.697 32.9425 229.281 32.9425C227.865 32.9425 226.213 32.9102 224.595 32.8635C221.179 32.7677 219.471 32.7197 218.386 31.6033C217.301 30.4868 217.302 28.7522 217.302 25.2855Z" stroke="#2A2C2D" stroke-width="1.79688"/>
<defs>
<clipPath id="clip0_103_48808">
<rect width="21.5625" height="21.5625" fill="white" transform="translate(81.9375 13.6562)"/>
</clipPath>
</defs>
</svg>
