<svg width="41" height="49" viewBox="0 0 41 49" fill="none" xmlns="http://www.w3.org/2000/svg">
<path d="M33.8456 25.7584C33.8241 21.8125 35.6089 18.8343 39.2214 16.6411C37.2001 13.7489 34.1467 12.1577 30.115 11.8459C26.2981 11.5449 22.1265 14.0715 20.5998 14.0715C18.9871 14.0715 15.2886 11.9534 12.3857 11.9534C6.38637 12.0502 0.0107422 16.7378 0.0107422 26.2745C0.0107422 29.0914 0.526814 32.005 1.55895 35.0047C2.93516 38.9504 7.90233 48.6268 13.0845 48.4654C15.7939 48.4009 17.7077 46.541 21.2342 46.541C24.6532 46.541 26.4271 48.4654 29.4484 48.4654C34.6736 48.3902 39.1677 39.5955 40.4794 35.639C33.4694 32.3382 33.8456 25.9626 33.8456 25.7584ZM27.7603 8.1044C30.6955 4.62092 30.4267 1.44923 30.3406 0.30957C27.7496 0.460091 24.7499 2.07281 23.0405 4.06184C21.1589 6.19063 20.0516 8.82475 20.2881 11.7922C23.0941 12.0072 25.653 10.5665 27.7603 8.1044Z" fill="#FCFBFF"/>
</svg>
